<?xml version="1.0" encoding="utf-8"?>
<!-- Generator: Adobe Illustrator 25.4.1, SVG Export Plug-In . SVG Version: 6.00 Build 0)  -->
<svg version="1.1" id="Layer_1" xmlns="http://www.w3.org/2000/svg" xmlns:xlink="http://www.w3.org/1999/xlink" x="0px" y="0px"
	 viewBox="0 0 2917.1 961.3" style="enable-background:new 0 0 2917.1 961.3;" xml:space="preserve">
<style type="text/css">
	.st0{fill:#251818;}
	.st1{fill:url(#SVGID_1_);}
	.st2{fill:url(#SVGID_00000100369170723866890700000015814379567964841398_);}
	.st3{fill:url(#SVGID_00000063633862311046270170000011430026173572174475_);}
	.st4{fill:url(#SVGID_00000058547443628513560060000016317734477615649961_);}
	.st5{fill:url(#SVGID_00000088849017383945848970000016892346008007024563_);}
	.st6{fill:url(#SVGID_00000085212241364005088330000010954821663099312262_);}
	.st7{fill:url(#SVGID_00000089540982089358524300000012199677708836614298_);}
	.st8{fill:url(#SVGID_00000162341431304290130790000000031731071744381884_);}
	.st9{fill:url(#SVGID_00000098941791908897643100000014143281562792084097_);}
	.st10{fill:url(#SVGID_00000088099238150015713140000004887406058604539020_);}
	.st11{fill:url(#SVGID_00000137838674420580425060000016746422604051075245_);}
	.st12{fill:url(#SVGID_00000022519680441457387110000008312041868332025483_);}
	.st13{fill:url(#SVGID_00000109713926879060444150000004687324072861829563_);}
	.st14{fill:url(#SVGID_00000084498422934208871630000007474176950475607951_);}
	.st15{fill:url(#SVGID_00000079460187967647856260000012194089694592142231_);}
	.st16{fill:url(#SVGID_00000075127829822370019040000015889374558711085203_);}
	.st17{fill:url(#SVGID_00000064332174330505760010000017224131510563363216_);}
	.st18{fill:url(#SVGID_00000033362327454886912560000011633400291771879300_);}
	.st19{fill:url(#SVGID_00000057832863715939030340000005387037676403688071_);}
	.st20{fill:url(#SVGID_00000031182826001607911900000011507605330820523197_);}
	.st21{fill:url(#SVGID_00000042708502639246184210000007179251884051706558_);}
	.st22{font-family:'ArialMT';}
	.st23{font-size:14.61px;}
	.st24{fill:url(#SVGID_00000147942778222026180530000015197369403591628941_);}
	.st25{fill:url(#SVGID_00000042001753727865390700000010340177326548411276_);}
	.st26{fill:url(#SVGID_00000102513390177664410590000002889025336999499686_);}
	.st27{fill:url(#SVGID_00000073698095052512558890000000316800522742583732_);}
	.st28{fill:url(#SVGID_00000101812981443027866120000006423788296981754295_);}
	.st29{fill:url(#SVGID_00000180335723920771086330000017319057371599065748_);}
	.st30{fill:url(#SVGID_00000058589587584856169160000008358063411496432286_);}
	.st31{fill:url(#SVGID_00000107580771873195922900000010672988297382217886_);}
	.st32{fill:url(#SVGID_00000030461075626120359970000003041361486776192954_);}
	.st33{fill:url(#SVGID_00000048490459052405416630000001972597504580434818_);}
	.st34{fill:url(#SVGID_00000181062286033344949660000014111433060072586429_);}
</style>
<g>
	<rect x="0" y="0" class="st0" width="2917.1" height="961.3"/>
	
		<linearGradient id="SVGID_1_" gradientUnits="userSpaceOnUse" x1="1458.5601" y1="4.965820e-03" x2="1458.5601" y2="961.325" gradientTransform="matrix(1 0 0 -1 0 961.33)">
		<stop  offset="0" style="stop-color:#D29630"/>
		<stop  offset="1" style="stop-color:#E4B25F"/>
	</linearGradient>
	<path class="st1" d="M2917.1,961.3H0V0h2917.1V961.3z M26.7,934.7h2863.7v-908H26.7V934.7z"/>
	
		<linearGradient id="SVGID_00000170968322407167392560000000733526459114472620_" gradientUnits="userSpaceOnUse" x1="379.695" y1="202.566" x2="379.695" y2="774.5053" gradientTransform="matrix(1 0 0 -1 0 961.33)">
		<stop  offset="0" style="stop-color:#D29630"/>
		<stop  offset="1" style="stop-color:#E4B25F"/>
	</linearGradient>
	<path style="fill:url(#SVGID_00000170968322407167392560000000733526459114472620_);" d="M87.3,383.9l28.1-17.7
		c16.2,17.6,33.7,32.7,57.6,37c8.9,1.6,18.2,1.1,26.5,1.6c3.7-7.3-0.6-10.5-3.2-14c-27-37.6-29.1-77.9-13-120.2
		c0.7-1.9,2.1-3.5,3.4-5.7c11.1,1.2,19.6,7.2,30.2,12.8c-8.2,15.3-9.1,31.5-8.3,48.1c0.6,12.9,4.2,24.9,9.8,36.4
		c6.4,13.5,17.2,24.3,30.6,30.8c19.5,9.8,40.4,13.9,63.2,16.7c0.4-4.2,1.5-7.5,0.9-10.5c-2.7-14.1-5.2-28.2-8.8-42.1
		c-7.7-29-25.8-47.7-56.1-53.4c-2.9-0.5-5.8-1.3-8.6-2.1c-0.7-0.2-1.3-1-2-1.5c-0.1-0.4-0.5-0.8-0.5-1.2
		c0.5-27.7,8.5-33.8,33.7-23.9c10.5,4.1,20,10.6,29.8,16.2c3.5,2,6.7,4.6,11.5,7.9c2-4.8,3.5-8.1,4.7-11.5c8.2-23.9,21-45.1,39-62.9
		c19.2-19.2,43.8-32.2,70.5-37.4c2.7-0.4,5.3-0.6,8-0.7c4,10.6,1.7,21,1.7,31.3c-1.8,1-3.2,2.2-4.7,2.6
		c-46.7,12.3-73.8,44.1-85.7,89.3c-12.4,47-5.5,91.2,24.3,130.7c1,1.4,2,2.7,3.1,4c5.4,5.8,8.6,6.3,13.3,0.1
		c6.6-8.7,13.5-17.5,18-27.4c22.2-49,20.4-97.3-6.2-144.3c-0.4-0.7-0.6-1.6-1.5-4.1l26.4-18.3c12.7,13.8,15.8,31.9,24.5,47.7
		c10.9-6.7,20.6-13.2,30.7-18.9c10.4-5.8,21.7-9,34.8-10.2c6,9.5,10.6,19.3,9.6,32c-5.6,1.3-10.5,2.3-15.3,3.5
		c-21.9,5.3-37.9,17.7-47,38.6c-8.9,20.3-10.9,42.2-15.1,63.8c2.5,0.9,4.1,2.2,5.5,2c19.7-2.5,39.1-6.4,57.3-14.8
		c22.5-10.4,34.7-28.7,40.5-52c5-20.1,4.7-40.1-3.3-59.6c-0.6-2-1.1-4.1-1.5-6.2l28.3-12.8c1.9,2.4,3.2,3.5,3.8,5
		c17.6,43.5,14.5,84.9-13.3,123.5c-2.1,2.9-3.9,6-7.1,10.9c38.8,6,65.4-10.7,88.5-37.2l28.2,17.6c-3.9,5.2-6.6,9.8-10.2,13.7
		c-27.9,29.8-62.2,44.1-103.2,41.1c-12.2-0.9-24.3-2.3-36.5-3.4c-38.8-3.4-75.1,2.9-105.5,29.2c-22.3,19.3-36.2,44.3-45.4,71.9
		c-11,33-12,66.2,0.3,99.2c0.7,2,1,4.3,2.2,5.9c1.7,2.1,4.3,4.9,6.4,4.8s5.1-3.1,5.8-5.4c3.7-13.8,8.1-27.6,9.8-41.7
		c1.4-12-0.3-24.4-1.1-36.6c-1-15.4,5.8-28.7,11.1-42.3c1.3-3.4,3.6-6.4,6.3-11.1c2,3.6,3.5,5.8,4.4,8.3
		c19.5,51.8,17,102.4-8.3,151.8C393,699,374,726.3,350.1,749.9c-9.8,9.7-26.6,11.7-41.9,4.6c2.1-3.1,3.9-6.3,6.2-9
		c11.7-13.8,23.7-27.4,35.4-41.2c2.5-2.9,4.2-6.3,6.6-9.2c4.4-5.3,4-10.1,0.8-16.2c-6.6-12.7-13.1-25.6-18-39
		c-14.9-41.2-11-82.2,3.3-122.6c3.2-9.1,7.5-17.9,11.6-26.7c4.8-10.2,5-10.3-2.9-18.5c-24.5-25.6-55.2-36.9-89.8-37.6
		c-18.5-0.4-37,2.2-55.5,3.6c-17,1.3-33.7,0.9-50.2-4C127.8,425.7,105.6,409.1,87.3,383.9z"/>
	
		<linearGradient id="SVGID_00000133525613879533159950000017251829259661148591_" gradientUnits="userSpaceOnUse" x1="199.0537" y1="345.8231" x2="199.0537" y2="539.3849" gradientTransform="matrix(1 0 0 -1 0 961.33)">
		<stop  offset="0" style="stop-color:#D29630"/>
		<stop  offset="1" style="stop-color:#E4B25F"/>
	</linearGradient>
	<path style="fill:url(#SVGID_00000133525613879533159950000017251829259661148591_);" d="M91.6,421.9c9.9,7.4,18.9,13.5,26.9,20.7
		c2.4,2.2,2.5,7.6,2.7,11.5c0.8,26.9,9.4,50.4,29.9,68.6c16.9,15,36.3,20.7,58.7,15.8c8.5-1.9,17.1-3.7,26.8-8.8
		c-16.3-20.5-29.2-41.2-27.8-68.5l32.5-3.5c5.7,17.3,10.7,33.8,23.1,46.7c12.4,13,29.6,17.3,46.3,25.6c-2,10.2-4,20.4-6,30.9
		c-10.3-0.5-19.9-1.5-29.4-1.4c-38.5,0.7-69,17.6-91.7,48.1c-5.2,7-9.9,9.3-17.9,6.6c-6.2-2.2-12.6-3.9-21-6.5l23.2-36.3
		C139,559,115.1,542,101.1,513.7c-6.6-13.4-11.3-27.4-12.5-42.2C87.3,455.6,86.3,439.5,91.6,421.9z"/>
	
		<linearGradient id="SVGID_00000157997865343206014880000015831478026333766283_" gradientUnits="userSpaceOnUse" x1="561.2482" y1="345.7274" x2="561.2482" y2="539.155" gradientTransform="matrix(1 0 0 -1 0 961.33)">
		<stop  offset="0" style="stop-color:#D29630"/>
		<stop  offset="1" style="stop-color:#E4B25F"/>
	</linearGradient>
	<path style="fill:url(#SVGID_00000157997865343206014880000015831478026333766283_);" d="M668.6,422.2c1.4,5.3,2.9,8.8,3.2,12.4
		c2.4,26.4,0.7,52.2-11.3,76.5c-12,24.3-30.3,42.2-54.7,53.9c-1.1,0.6-2.3,1-3.5,1.5c-8.9,4.3-9.4,6.1-4.1,14.1
		c4.7,7,9.5,13.9,14.1,20.9c1,1.8,1.8,3.6,2.6,5.5c-8.5,5.4-17.9,7.2-27.2,8.5c-2.6,0.4-6.7-3.1-8.7-5.8
		c-9.2-12.6-20.7-23.4-33.8-31.9c-26.8-17.6-56.2-21.4-89-15.7c-2.1-10.2-4.1-20.2-6.5-31.7c37.3-10.2,65.9-29.1,70-72.1l33,2.9
		c-0.8,26.9-11.2,48.3-27.3,66.9c1.7,2.2,2.2,3.6,3.3,4.1c33.3,17.4,74.4,6.5,94.8-25c9.9-15.2,15.7-31.8,15.1-50.1
		c-0.3-9,2.5-15.1,10.3-19.8C655.3,433.5,660.8,428.2,668.6,422.2z"/>
	
		<linearGradient id="SVGID_00000163790180646918524240000005316264103584516006_" gradientUnits="userSpaceOnUse" x1="379.9422" y1="557.825" x2="379.9422" y2="657.825" gradientTransform="matrix(1 0 0 -1 0 961.33)">
		<stop  offset="0" style="stop-color:#D29630"/>
		<stop  offset="1" style="stop-color:#E4B25F"/>
	</linearGradient>
	<path style="fill:url(#SVGID_00000163790180646918524240000005316264103584516006_);" d="M379.8,303.5c21.8,26.6,23.1,77.7,1.1,100
		C357.8,388,356.9,332.9,379.8,303.5z"/>
	
		<linearGradient id="SVGID_00000040545605642060778640000013095954788918319528_" gradientUnits="userSpaceOnUse" x1="501.6576" y1="333.8851" x2="501.6576" y2="374.1725" gradientTransform="matrix(1 0 0 -1 0 961.33)">
		<stop  offset="0" style="stop-color:#D29630"/>
		<stop  offset="1" style="stop-color:#E4B25F"/>
	</linearGradient>
	<path style="fill:url(#SVGID_00000040545605642060778640000013095954788918319528_);" d="M541.2,619.5c-9.1,8-18.6,7.5-26.9,7.9
		c-15.1,0.6-30.1-2.2-43-11.2c-7.4-5.2-10.4-11.4-8.6-18c1.6-5.9,8.2-10.6,16.8-10.9c17.5-0.7,32.9,5.6,46.4,16.4
		C531.3,608,535.6,613.7,541.2,619.5z"/>
	
		<linearGradient id="SVGID_00000060001225564261533950000009996182443806836900_" gradientUnits="userSpaceOnUse" x1="259.6557" y1="333.775" x2="259.6557" y2="374.1705" gradientTransform="matrix(1 0 0 -1 0 961.33)">
		<stop  offset="0" style="stop-color:#D29630"/>
		<stop  offset="1" style="stop-color:#E4B25F"/>
	</linearGradient>
	<path style="fill:url(#SVGID_00000060001225564261533950000009996182443806836900_);" d="M220.6,620.2c14.3-20.2,33-32.1,58-33
		c3.8-0.1,7.6,0.6,11.1,2.1c9.2,3.6,11.9,12.7,5.9,20.4c-2.8,3.7-6.3,6.8-10.3,9.1c-19.6,10.4-40.2,11.2-61.2,4.5
		C223,622.8,222.2,621.7,220.6,620.2z"/>
	
		<linearGradient id="SVGID_00000055695780128343198730000011936293918461481103_" gradientUnits="userSpaceOnUse" x1="299.8759" y1="704.014" x2="299.8759" y2="766.7449" gradientTransform="matrix(1 0 0 -1 0 961.33)">
		<stop  offset="0" style="stop-color:#D29630"/>
		<stop  offset="1" style="stop-color:#E4B25F"/>
	</linearGradient>
	<path style="fill:url(#SVGID_00000055695780128343198730000011936293918461481103_);" d="M323.6,194.6c3.4,15.1-0.5,27.2-6.9,37.9
		c-4.8,8-11.9,14.9-18.9,21.3c-4.5,4.3-11.4,4.7-16.3,1c-5.9-4.1-7.6-10.1-5.9-16.7c1.3-5.3,3.3-10.4,6.2-15
		C291.3,208.5,305.5,200.3,323.6,194.6z"/>
	
		<linearGradient id="SVGID_00000121999800792048485010000006185736827817406091_" gradientUnits="userSpaceOnUse" x1="587.1135" y1="442.1889" x2="587.1135" y2="500.175" gradientTransform="matrix(1 0 0 -1 0 961.33)">
		<stop  offset="0" style="stop-color:#D29630"/>
		<stop  offset="1" style="stop-color:#E4B25F"/>
	</linearGradient>
	<path style="fill:url(#SVGID_00000121999800792048485010000006185736827817406091_);" d="M609.8,461.2c0,21-5.7,38.3-20.7,51.9
		c-1.2,1.1-2.6,2.1-4.1,2.9c-5,2.6-10.2,5-15.4,1s-6-9.8-4.7-16C568.8,482.7,588.4,464.7,609.8,461.2z"/>
	
		<linearGradient id="SVGID_00000019644182285449823940000017382663152669087165_" gradientUnits="userSpaceOnUse" x1="174.3698" y1="442.102" x2="174.3698" y2="499.565" gradientTransform="matrix(1 0 0 -1 0 961.33)">
		<stop  offset="0" style="stop-color:#D29630"/>
		<stop  offset="1" style="stop-color:#E4B25F"/>
	</linearGradient>
	<path style="fill:url(#SVGID_00000019644182285449823940000017382663152669087165_);" d="M153,461.8c19.6,2.6,40.9,23.2,43.4,41.6
		c0.8,5.5-0.6,10-5,13.4c-4.7,3.7-9.4,2.7-14.1,0.1C160.5,507.7,148.6,480.9,153,461.8z"/>
	
		<linearGradient id="SVGID_00000014599277430778170490000010003948144515079562_" gradientUnits="userSpaceOnUse" x1="466.7661" y1="693.8203" x2="466.7661" y2="758.8549" gradientTransform="matrix(1 0 0 -1 0 961.33)">
		<stop  offset="0" style="stop-color:#D29630"/>
		<stop  offset="1" style="stop-color:#E4B25F"/>
	</linearGradient>
	<path style="fill:url(#SVGID_00000014599277430778170490000010003948144515079562_);" d="M480.1,202.5c6.8,20.5,5.1,39.1-5.4,56.7
		c-4.1,6.8-10,9.5-15.8,7.9c-6.7-1.9-8.7-7.4-9.4-13.6C447.5,235.2,461.8,210.5,480.1,202.5z"/>
	
		<linearGradient id="SVGID_00000048479129707929382710000013137171313638547877_" gradientUnits="userSpaceOnUse" x1="617.7302" y1="588.475" x2="617.7302" y2="654.955" gradientTransform="matrix(1 0 0 -1 0 961.33)">
		<stop  offset="0" style="stop-color:#D29630"/>
		<stop  offset="1" style="stop-color:#E4B25F"/>
	</linearGradient>
	<path style="fill:url(#SVGID_00000048479129707929382710000013137171313638547877_);" d="M603.2,372.9
		c-9.4-28.2,2.1-55.2,27.8-66.5C642.9,331.6,630.7,361.5,603.2,372.9z"/>
	
		<linearGradient id="SVGID_00000038394397104341634510000008253288360384236436_" gradientUnits="userSpaceOnUse" x1="143.5037" y1="589.045" x2="143.5037" y2="654.4949" gradientTransform="matrix(1 0 0 -1 0 961.33)">
		<stop  offset="0" style="stop-color:#D29630"/>
		<stop  offset="1" style="stop-color:#E4B25F"/>
	</linearGradient>
	<path style="fill:url(#SVGID_00000038394397104341634510000008253288360384236436_);" d="M157.4,372.3c-26.5-9-39.3-39.1-27.9-65.4
		C150,311.7,170.8,346.8,157.4,372.3z"/>
	
		<linearGradient id="SVGID_00000165232063921357007060000007440998525996034222_" gradientUnits="userSpaceOnUse" x1="99.2303" y1="366.8779" x2="99.2303" y2="416.3451" gradientTransform="matrix(1 0 0 -1 0 961.33)">
		<stop  offset="0" style="stop-color:#D29630"/>
		<stop  offset="1" style="stop-color:#E4B25F"/>
	</linearGradient>
	<path style="fill:url(#SVGID_00000165232063921357007060000007440998525996034222_);" d="M71.3,545c24.8,1.2,41.6,10.3,52.8,28.9
		c4.3,7.1,3.9,13.3-0.5,17.3c-5,4.7-10.9,3.6-16.5,1.3c-11.4-4.6-19.5-13-25.2-23.5C78.2,562.1,75.6,554.7,71.3,545z"/>
	
		<linearGradient id="SVGID_00000039815746820383825430000011457703876846067900_" gradientUnits="userSpaceOnUse" x1="295.8253" y1="457.2241" x2="295.8253" y2="500.2403" gradientTransform="matrix(1 0 0 -1 0 961.33)">
		<stop  offset="0" style="stop-color:#D29630"/>
		<stop  offset="1" style="stop-color:#E4B25F"/>
	</linearGradient>
	<path style="fill:url(#SVGID_00000039815746820383825430000011457703876846067900_);" d="M267.5,462.8c20.4-6.4,47.9,5.7,55.3,23.4
		c1.9,4.6,2.2,9-1.5,12.9c-4,4.3-8.8,5.9-14.8,4.3c-15.1-4.2-25.5-14.2-33.2-27.2C270.8,472.2,269.4,467.4,267.5,462.8z"/>
	
		<linearGradient id="SVGID_00000031929691873826593890000005101220103588535185_" gradientUnits="userSpaceOnUse" x1="464.6767" y1="457.3878" x2="464.6767" y2="500.326" gradientTransform="matrix(1 0 0 -1 0 961.33)">
		<stop  offset="0" style="stop-color:#D29630"/>
		<stop  offset="1" style="stop-color:#E4B25F"/>
	</linearGradient>
	<path style="fill:url(#SVGID_00000031929691873826593890000005101220103588535185_);" d="M492.2,462c-3.5,19.7-19.5,37.1-37.2,41.2
		c-5.8,1.4-11,0.9-14.9-3.9c-4.4-5.3-3.2-10.8-0.1-16.4C448.8,467.7,472.8,457.7,492.2,462z"/>
	
		<linearGradient id="SVGID_00000123420515762017957010000014686477792654777512_" gradientUnits="userSpaceOnUse" x1="661.1014" y1="367.0586" x2="661.1014" y2="415.2658" gradientTransform="matrix(1 0 0 -1 0 961.33)">
		<stop  offset="0" style="stop-color:#D29630"/>
		<stop  offset="1" style="stop-color:#E4B25F"/>
	</linearGradient>
	<path style="fill:url(#SVGID_00000123420515762017957010000014686477792654777512_);" d="M687.9,546.3c-5,21.3-14.7,36.6-32.9,45.6
		c-7.2,3.6-14,2.9-17.6-0.9c-4.2-4.4-4-11.5,0.4-18.7c8.7-13.9,21.5-22.1,37.2-25.9C678.4,545.7,682.2,546.3,687.9,546.3z"/>
	
		<linearGradient id="SVGID_00000123435152423110011510000010361147572749464486_" gradientUnits="userSpaceOnUse" x1="261.4367" y1="581.7646" x2="261.4367" y2="632.4578" gradientTransform="matrix(1 0 0 -1 0 961.33)">
		<stop  offset="0" style="stop-color:#D29630"/>
		<stop  offset="1" style="stop-color:#E4B25F"/>
	</linearGradient>
	<path style="fill:url(#SVGID_00000123435152423110011510000010361147572749464486_);" d="M238.7,328.9
		c25.4-1.2,46.3,22.2,46.1,50.7C257.2,379.7,234.3,355,238.7,328.9z"/>
	
		<linearGradient id="SVGID_00000079486417570247288900000010053396200533196454_" gradientUnits="userSpaceOnUse" x1="499.5326" y1="581.1149" x2="499.5326" y2="632.0582" gradientTransform="matrix(1 0 0 -1 0 961.33)">
		<stop  offset="0" style="stop-color:#D29630"/>
		<stop  offset="1" style="stop-color:#E4B25F"/>
	</linearGradient>
	<path style="fill:url(#SVGID_00000079486417570247288900000010053396200533196454_);" d="M522.2,329.4c3.2,26.3-15.4,47-44.7,50.8
		C471,356.4,496.6,327,522.2,329.4z"/>
	
		<linearGradient id="SVGID_00000070087507767993069340000013602780963771896502_" gradientUnits="userSpaceOnUse" x1="426.3501" y1="202.1487" x2="426.3501" y2="247.125" gradientTransform="matrix(1 0 0 -1 0 961.33)">
		<stop  offset="0" style="stop-color:#D29630"/>
		<stop  offset="1" style="stop-color:#E4B25F"/>
	</linearGradient>
	<path style="fill:url(#SVGID_00000070087507767993069340000013602780963771896502_);" d="M418.2,714.2
		c8.7,16.3,24.3,25.1,33.4,39.8c-18.2,10.5-37,4.9-50.5-14.6c2.5-3.9,5.2-8,7.9-12.1S414.6,719.3,418.2,714.2z"/>
	
		<linearGradient id="SVGID_00000021119020989055168790000015179905269662691224_" gradientUnits="userSpaceOnUse" x1="751.53" y1="177.8549" x2="751.53" y2="783.4849" gradientTransform="matrix(1 0 0 -1 0 961.33)">
		<stop  offset="0" style="stop-color:#D29630"/>
		<stop  offset="1" style="stop-color:#E4B25F"/>
	</linearGradient>
	
		<rect x="741.9" y="177.8" style="fill:url(#SVGID_00000021119020989055168790000015179905269662691224_);" width="19.2" height="605.6"/>
	<text transform="matrix(1 0 0 1 1370.2301 488.305)" class="st22 st23">120.2691</text>
	
		<linearGradient id="SVGID_00000072989156418402073420000003166256146321052814_" gradientUnits="userSpaceOnUse" x1="1472.1885" y1="358.2259" x2="1472.1885" y2="627.3027" gradientTransform="matrix(1 0 0 -1 0 961.33)">
		<stop  offset="0" style="stop-color:#D29630"/>
		<stop  offset="1" style="stop-color:#E4B25F"/>
	</linearGradient>
	<path style="fill:url(#SVGID_00000072989156418402073420000003166256146321052814_);" d="M1455.4,586.8l-58.6-6.7
		c0.9-10.8,1.3-20.4,2.5-29.9c6.1-50.3,12.5-100.6,18.6-150.9c0.6-4.9,0.1-10,0.1-16.5l-41.2,5.3c-5.1-12.1-2.4-23.8-1.8-35.3
		c12.3-4.1,60.7-5.2,87.7-1.9l65.8,155.7l3.9-0.8c1.4-56-5.1-111.9-3.3-168.8c13.7-5.1,27.3-2.4,40.6-2
		c3.6,12.2-2.8,247.3-7.3,266.6c-4,0.4-8.4,1.2-12.8,1.3c-4,0.1-8-0.4-13.6-0.8l-71.4-170.6l-4.5,0.9
		C1458.6,483.4,1457,534.1,1455.4,586.8z"/>
	
		<linearGradient id="SVGID_00000142159741777284821620000001555192022078802088_" gradientUnits="userSpaceOnUse" x1="1085.4991" y1="358.9846" x2="1085.4991" y2="627.4085" gradientTransform="matrix(1 0 0 -1 0 961.33)">
		<stop  offset="0" style="stop-color:#D29630"/>
		<stop  offset="1" style="stop-color:#E4B25F"/>
	</linearGradient>
	<path style="fill:url(#SVGID_00000142159741777284821620000001555192022078802088_);" d="M1010.5,395.7h50.5
		c-0.4,55.9-6.9,110.7-7.3,165.1c29.8,7.6,47.4-1.5,53.8-28.8c8.8-38,9.8-76.6,2.2-114.9c-5.8-28.9-22.7-42-52.6-42.3
		c-18.3-0.2-36.7,1.4-56,2.3c-3.2-13.9-0.7-27.1,3.4-41.7c31.5-0.8,63.2-5,93.6,7c43.4,17.1,65.7,51.1,72.3,95.7
		c4.2,28.1,2.3,56.4-7.3,83.6c-16.5,46.6-48.1,75.3-98.3,79.9c-19.9,1.8-40,0.3-61.8,0.3c-1.4-13.7-2.8-26.6-4.3-40.7l20.2-3.2
		C1016.1,504.3,1013.3,451.1,1010.5,395.7z"/>
	
		<linearGradient id="SVGID_00000007398539696482568870000014726466282005597111_" gradientUnits="userSpaceOnUse" x1="897.2401" y1="367.3764" x2="897.2401" y2="617.665" gradientTransform="matrix(1 0 0 -1 0 961.33)">
		<stop  offset="0" style="stop-color:#D29630"/>
		<stop  offset="1" style="stop-color:#E4B25F"/>
	</linearGradient>
	<path style="fill:url(#SVGID_00000007398539696482568870000014726466282005597111_);" d="M873.8,390.5c-0.9,17.6-1.7,33.5-2.6,50.2
		c23.3,5,44.9-4.4,67.5-0.6c0.8,10.7,1.5,20.8,2.4,32.8l-67.4,6.4c-5.3,14.2-7.1,50.1-3.2,66.4l92.3-9.7c1.3,18.8,0.7,36.4,0.4,53.8
		c-12.5,4.3-119.6,5.7-148,2v-37.5l18.5-6.3c0-5.4,0.2-11.6,0-17.7c-1.3-42.1-3-84.1-4-126.2c-0.3-11.2-1.6-20.7-14.6-22.8v-37.8
		h164v55.4C944.6,398.7,910.8,391.6,873.8,390.5z"/>
	
		<linearGradient id="SVGID_00000118390747459721271930000017588551266671936900_" gradientUnits="userSpaceOnUse" x1="1265.1261" y1="367.577" x2="1265.1261" y2="617.7449" gradientTransform="matrix(1 0 0 -1 0 961.33)">
		<stop  offset="0" style="stop-color:#D29630"/>
		<stop  offset="1" style="stop-color:#E4B25F"/>
	</linearGradient>
	<path style="fill:url(#SVGID_00000118390747459721271930000017588551266671936900_);" d="M1241.5,389.9v52.8l64.6-4
		c1.4,11,2.7,21.4,4.2,34l-71.5,6.9c-2.6,21.9-1.6,42.9-2.4,66.2l93.6-9.7v54.2c-12.2,3.7-118.8,4.8-145.9,1.4v-37.6l18.5-6.3
		c-1.9-53-3.8-105.9-5.7-158.1c-15.8-11-17.6-17.7-11.9-46h161.9c2.1,17.9,1.4,35.9,0.2,56.3L1241.5,389.9z"/>
	
		<linearGradient id="SVGID_00000163033516636189279960000017090121595995955844_" gradientUnits="userSpaceOnUse" x1="2681.8606" y1="355.112" x2="2681.8606" y2="629.4578" gradientTransform="matrix(1 0 0 -1 0 961.33)">
		<stop  offset="0" style="stop-color:#D29630"/>
		<stop  offset="1" style="stop-color:#E4B25F"/>
	</linearGradient>
	<path style="fill:url(#SVGID_00000163033516636189279960000017090121595995955844_);" d="M2569.7,517.7c0,5.5-0.1,11,0,16.5
		c0.2,17.3,0.5,34.6,0.8,51.8c0.1,8.3-3.2,13.1-12.1,13c-9.2-0.2-18.4,0-27.7-0.1c-7.1,0-10.6-3.6-10.5-10.7c0-2.3-0.1-4.6,0-6.9
		c2.3-54.7,4.6-109.3,7.1-164c0.6-13.2,2.6-15,15.5-15.2c6.1-0.1,12.2,0.8,19.2,1.4c1.7,23.1,3.3,44.7,4.9,65.8
		c18.6,4.8,42.9-1.8,55-14.8s13.8-28.5,9-45.2c-4.4-15.4-14.9-23.9-29.9-28c-20.8-5.6-41.2-0.8-61.7,1.5c-6.2,0.7-12.4,1.6-21.4,2.9
		c1.6-18.6,3-35.3,4.6-53c36.6-1.2,71.2-3.3,104.8,7c39.9,12.2,59.1,43,56.2,91.8c-2.2,36.4-19.9,56.7-55,66.4
		c-5,1.4-9.9,2.8-14.8,4.4c-0.8,0.3-1.2,1.7-2.7,4c30.1,30.1,68,43.1,108.9,49.7c40.4,6.6,80.1,4.2,120.4-12
		c3.6,16.1,6.1,30,5.4,44.1c-0.2,3.4-6.1,8.3-10.2,9.5c-11.1,3.1-22.4,5.2-33.9,6.3c-48.7,4.6-96.7,1.7-142.7-16.6
		c-30.7-12.3-55.7-32.1-75.2-58.9c-3-4.1-6.2-8.1-9.2-12.1L2569.7,517.7z"/>
	
		<linearGradient id="SVGID_00000139267148832865724690000017881976248556514723_" gradientUnits="userSpaceOnUse" x1="2393.7007" y1="369.1603" x2="2393.7007" y2="619.585" gradientTransform="matrix(1 0 0 -1 0 961.33)">
		<stop  offset="0" style="stop-color:#D29630"/>
		<stop  offset="1" style="stop-color:#E4B25F"/>
	</linearGradient>
	<path style="fill:url(#SVGID_00000139267148832865724690000017881976248556514723_);" d="M2300.1,341.7h91.7
		c0.3,5.6,1,10.6,0.8,15.5c-1.7,46.1-3.8,92.1-5,138.2c-0.3,13.8,0.7,27.6,2.8,41.2c2.6,16.3,11.2,25.1,23.2,26.6
		c14.8,1.8,30.9-6.9,35.8-21.7c3.4-10.4,5.1-21.2,4.9-32.1c-0.9-45.5-2.7-91-4.2-136.5c-0.2-6.2,0-12.5,0-20.4h36.2
		c0.4,5,1.2,10,1,14.9c-2.4,56.4-4.4,112.8-7.6,169.2c-1.8,33.1-16.9,48.7-49.7,54.1c-18.9,3.2-38.3,0.7-55.8-7.1
		c-29.8-13.1-39.4-39.3-40.2-69c-0.5-18.3,2.4-36.7,4.3-55c2.4-22.9,5.5-45.7,8.1-68.6c0.5-4.4,0.1-8.9,0.1-15.5l-46.3,6
		L2300.1,341.7z"/>
	
		<linearGradient id="SVGID_00000078752668384164117590000016940651388420255877_" gradientUnits="userSpaceOnUse" x1="1874.1222" y1="369.5381" x2="1874.1222" y2="621.1611" gradientTransform="matrix(1 0 0 -1 0 961.33)">
		<stop  offset="0" style="stop-color:#D29630"/>
		<stop  offset="1" style="stop-color:#E4B25F"/>
	</linearGradient>
	<path style="fill:url(#SVGID_00000078752668384164117590000016940651388420255877_);" d="M1929.6,352.3h37.7c0,6.8,0.2,12.4,0,18
		c-2,49.5-4,99-6.3,148.4c-0.4,10.3-1.7,20.6-3.7,30.8c-4.6,21.6-16.8,35.5-39.7,40c-17.5,3.6-35.7,3-52.9-1.7
		c-29-7.9-49-31.7-49.8-63.3c-0.6-25.2,2.3-50.5,4.4-75.7c1.8-21.2,4.9-42.3,7.3-63.4c0.3-2.7-0.5-5.4-0.9-9.8l-44.8,6v-37.8
		c11.5-4,66.4-5.1,90.2-1.2c0.2,5.6,0.8,11.7,0.6,17.8c-1.3,49.5-2.9,99-3.9,148.5c-0.2,10.2,1.3,20.6,3.2,30.7
		c2.2,12.1,8.6,21.4,22,23.5s29.6-5.1,34.4-17.9c4.4-11.6,7.4-24.5,7.2-36.8c-0.7-43.2-3.2-86.3-4.8-129.4
		C1929.3,370.5,1929.6,362,1929.6,352.3z"/>
	
		<linearGradient id="SVGID_00000126301773684071839050000003718030612988234895_" gradientUnits="userSpaceOnUse" x1="2188.9456" y1="362.0775" x2="2188.9456" y2="629.439" gradientTransform="matrix(1 0 0 -1 0 961.33)">
		<stop  offset="0" style="stop-color:#D29630"/>
		<stop  offset="1" style="stop-color:#E4B25F"/>
	</linearGradient>
	<path style="fill:url(#SVGID_00000126301773684071839050000003718030612988234895_);" d="M2166.4,395.6h-61.8
		c-0.4-11.5-0.8-21-1-30.7s0-19.4,0-31.5c29-2.7,57-1,84.8-1.3c27.5-0.3,55-0.1,84-0.1c3,21.7,1.9,41.3,0.4,63h-61.2
		c-0.9,5.1-2,8.4-2,11.7c0.5,27,1.1,54.1,1.8,81.1c0.8,31.1,1.9,62.1,2.5,93.2c0.3,16.7-1,17.8-17.3,18.1c-6.3,0.1-12.7,0.2-19,0
		c-12.5-0.5-14.1-1.8-14.1-14.2c0-20.7,0.4-41.4,1-62.1c1.2-38.5,2.7-77.1,3.9-115.6C2168.8,404,2167.4,400.7,2166.4,395.6z"/>
	
		<linearGradient id="SVGID_00000119804094084992350350000003986259141489563559_" gradientUnits="userSpaceOnUse" x1="1693.038" y1="371.9413" x2="1693.038" y2="619.7069" gradientTransform="matrix(1 0 0 -1 0 961.33)">
		<stop  offset="0" style="stop-color:#D29630"/>
		<stop  offset="1" style="stop-color:#E4B25F"/>
	</linearGradient>
	<path style="fill:url(#SVGID_00000119804094084992350350000003986259141489563559_);" d="M1757.8,542.6c4.7,15.2-0.4,28-2.2,40.8
		c-0.3,2.4-6,5.7-9.2,5.7c-18.4,0.1-37.1,1.1-55.2-1.6c-22.2-3.3-39.4-16.7-49.2-37.1c-5.8-11.9-9.9-24.5-12.3-37.5
		c-5.9-33.6-7.7-67.5,0.8-101.1c2.1-8.4,4.9-16.5,8.4-24.4c11.8-26.4,32.5-41.9,61-44.8c18.2-1.8,36.7-0.3,56-0.3
		c5.9,22.4,4,44.7,5.4,68.5c-5.9,0-10.3,0.1-14.6,0c-15.6-0.3-31.1-1.5-46.6-0.8c-19.6,0.9-34.3,12.5-35.4,31.4
		c-1.4,25.2-0.8,50.5,2,75.7c2.2,19.7,11.7,26.7,31.5,27.7c12.6,0.6,25.2-1.5,37.8-2.1C1742.8,542.3,1749.7,542.6,1757.8,542.6z"/>
	
		<linearGradient id="SVGID_00000122681374486339360980000006349865164510261183_" gradientUnits="userSpaceOnUse" x1="2773.1091" y1="434.913" x2="2773.1091" y2="630.5597" gradientTransform="matrix(1 0 0 -1 0 961.33)">
		<stop  offset="0" style="stop-color:#D29630"/>
		<stop  offset="1" style="stop-color:#E4B25F"/>
	</linearGradient>
	<path style="fill:url(#SVGID_00000122681374486339360980000006349865164510261183_);" d="M2745.3,433.3c-6,28.4,3,42.3,28.4,43.4
		c14.1,0.6,28.4-2.2,42.6-4.1c5-0.6,9.8-2.9,16.8-5.1c2.2,16.4,4.2,31.6,6.5,49c-5.4,2.1-10.8,5.5-16.5,6.1
		c-18.2,1.9-36.6,4.1-54.9,3.7c-23.2-0.4-40.7-12.1-50.1-33.6c-4.3-10-7.4-20.5-9-31.3c-4.3-28.2-2.9-56.4,5-83.8
		c11.4-39.4,60.9-58.9,97.1-39.2c19.2,10.5,28.8,34.6,23.2,58.2c-5.8,24.3-20.5,36.2-45.3,36.5
		C2774.2,433.4,2759.4,433.3,2745.3,433.3z M2745.9,403.8c17.8,5.5,35,5.5,51.8,2.7c4.4-0.7,9.8-8.3,10.8-13.5
		c0.8-4.2-3-11.3-6.9-14.2C2782.6,364.6,2751.2,377.8,2745.9,403.8z"/>
	
		<linearGradient id="SVGID_00000146476586869317628400000007498908151528326292_" gradientUnits="userSpaceOnUse" x1="2062.6895" y1="362.8173" x2="2062.6895" y2="623.3027" gradientTransform="matrix(1 0 0 -1 0 961.33)">
		<stop  offset="0" style="stop-color:#D29630"/>
		<stop  offset="1" style="stop-color:#E4B25F"/>
	</linearGradient>
	<path style="fill:url(#SVGID_00000146476586869317628400000007498908151528326292_);" d="M1999,597.5c-1.2-10.8-2-19.4-3-27.9
		c-1.9-16-1.9-16.1,13.3-19.9c1.6-0.4,3.3-1,4.9-1.6c1.2-0.7,2.5-1.6,3.6-2.5c0.8-53,0-107.4-1.1-162.1l-21.4-5.7v-39.7
		c30-1,58.1,3.3,87,5.1v40.4l-30.2,2.3c-0.7,52.6-0.9,104.8-1,158.3c25.5,5.1,49.4-0.8,73.1-1.1c7.1,12,5.9,24.2,6.1,36.1
		c0.2,8.8-4.8,12.2-12.9,12.7c-19,1.1-37.9,2.3-56.9,3.5c-15.5,1-31,2.2-46.5,3.1C2009.4,598.7,2005,597.9,1999,597.5z"/>
</g>
</svg>
